<svg width="25" height="24" viewBox="0 0 25 24" fill="none" xmlns="http://www.w3.org/2000/svg">
<path d="M12.5 11.1075L22.085 4.95C21.6997 4.66096 21.2317 4.50323 20.75 4.5H4.25004C3.76834 4.50323 3.3004 4.66096 2.91504 4.95L12.5 11.1075Z" fill="#FFBA53"/>
<path d="M12.905 12.6298L12.7775 12.6898H12.7175C12.6484 12.7207 12.5751 12.7409 12.5 12.7498C12.4377 12.7577 12.3748 12.7577 12.3125 12.7498H12.2525L12.125 12.6898L2.075 6.19482C2.02698 6.37598 2.00179 6.56242 2 6.74982V17.2498C2 17.8466 2.23705 18.4189 2.65901 18.8408C3.08097 19.2628 3.65326 19.4998 4.25 19.4998H20.75C21.3467 19.4998 21.919 19.2628 22.341 18.8408C22.7629 18.4189 23 17.8466 23 17.2498V6.74982C22.9982 6.56242 22.973 6.37598 22.925 6.19482L12.905 12.6298Z" fill="#FFBA53"/>
</svg>
