<svg width="24" height="24" viewBox="0 0 24 24" fill="none" xmlns="http://www.w3.org/2000/svg">
<path d="M17.3082 14.6836L15.5777 15.6585C15.37 15.7754 15.1298 15.8212 14.8937 15.7887C14.6576 15.7563 14.4386 15.6475 14.2701 15.4789L8.49437 9.70321C8.32592 9.53468 8.2172 9.31568 8.18478 9.07961C8.15235 8.84354 8.19801 8.60334 8.31478 8.39563L9.28968 6.66514C9.46516 6.35369 9.53387 5.99336 9.4853 5.63919C9.43673 5.28502 9.27356 4.95648 9.02071 4.70377L6.42706 2.11011C6.27504 1.95802 6.09455 1.83737 5.89589 1.75505C5.69723 1.67274 5.4843 1.63037 5.26926 1.63037C5.05423 1.63037 4.8413 1.67274 4.64264 1.75505C4.44398 1.83737 4.26349 1.95802 4.11147 2.11011L2.93382 3.28694C2.24516 3.97558 1.8065 4.87469 1.68758 5.8413C1.56867 6.80791 1.77633 7.78654 2.27754 8.62156L2.86844 9.60639C5.88601 14.6356 10.1452 18.805 15.2375 21.7148L15.3542 21.7818C17.0938 22.7758 19.2431 22.4861 20.6359 21.0941L21.8657 19.8643C22.0178 19.7123 22.1384 19.5318 22.2207 19.3331C22.3031 19.1345 22.3454 18.9216 22.3454 18.7065C22.3454 18.4915 22.3031 18.2786 22.2207 18.0799C22.1384 17.8812 22.0178 17.7007 21.8657 17.5487L19.2704 14.9534C19.0177 14.7002 18.6891 14.5368 18.3347 14.4881C17.9803 14.4394 17.6198 14.508 17.3082 14.6836Z" fill="#FFBA53"/>
</svg>
